<?xml version="1.0" encoding="UTF-8"?>
<svg width="1575px" height="309px" viewBox="0 0 1575 309" version="1.1" xmlns="http://www.w3.org/2000/svg" xmlns:xlink="http://www.w3.org/1999/xlink">
    <title>Group</title>
    <defs>
        <polygon id="path-1" points="0 308 1574 308 1574 0 0 0"></polygon>
    </defs>
    <g id="Page-1" stroke="none" stroke-width="1" fill="none" fill-rule="evenodd">
        <g id="logo" transform="translate(-92.000000, -119.000000)">
            <g id="Group" transform="translate(92.732500, 119.159000)">
                <path d="M536.3626,190.9869 L536.3626,117.7009 L548.7316,117.7009 C547.1566,118.5309 545.7026,119.5959 544.4196,120.8759 C541.0466,124.2439 539.1526,128.8149 539.1526,133.5799 L539.1526,174.7149 C539.1526,179.4889 541.0546,184.0639 544.4316,187.4319 C545.7716,188.7679 547.3026,189.8699 548.9586,190.7119 L540.1926,190.7119 C539.5126,190.7119 538.8366,190.7519 538.1606,190.8289 C537.5286,190.9019 536.9296,190.9549 536.3626,190.9869 L536.3626,190.9869 Z M127.5566,191.9829 L172.4086,191.9829 L172.4086,116.4259 L127.5566,116.4259 L127.5566,191.9829 Z M732.0006,57.8009 C732.4536,52.7759 730.7776,47.7919 727.3726,44.0679 C723.9716,40.3429 719.1616,38.2209 714.1166,38.2209 L665.6826,38.2209 C660.9126,38.2209 656.3376,40.1199 652.9696,43.4969 C649.6006,46.8729 647.7146,51.4519 647.7266,56.2219 L647.8846,121.6749 C644.6046,118.0599 639.9176,115.7459 634.6526,115.7379 L630.6366,115.7339 C635.5556,113.2149 639.2036,108.4779 640.1716,102.7129 L647.4716,59.1449 C648.3416,53.9339 646.8806,48.6099 643.4666,44.5779 C640.0536,40.5449 635.0416,38.2209 629.7626,38.2209 L477.2716,38.2209 C469.5796,38.2209 462.7406,43.1199 460.2716,50.4039 L456.0356,62.8779 C450.8146,50.1279 439.7026,41.7599 424.1606,39.3589 C423.2536,39.2209 422.3386,39.1479 421.4196,39.1479 L389.8606,39.1479 C388.1676,31.0549 381.0216,24.9619 372.4266,24.8929 C372.4266,24.8929 326.5626,24.5449 326.5186,24.5449 C321.7816,24.5449 317.2346,26.4189 313.8696,29.7549 C311.2786,32.3299 309.5496,35.6099 308.8776,39.1479 L268.0026,39.1479 C259.9656,39.1479 252.9086,44.4889 250.7226,52.2219 L246.8186,66.0359 C242.8476,53.5419 235.3556,42.2839 221.1906,38.3949 C219.6406,37.9699 218.0416,37.7559 216.4376,37.7559 L120.8396,37.7559 C118.9006,37.7559 117.0096,38.0669 115.2206,38.6579 C113.4106,38.0629 111.5156,37.7559 109.6006,37.7559 C108.3896,37.7559 107.1756,37.8769 105.9686,38.1279 L63.3276,46.9339 C54.9876,48.6549 49.0036,55.9989 49.0036,64.5179 L49.0036,231.2589 C49.0036,232.2999 49.0966,233.3359 49.2746,234.3609 C53.3236,257.4549 69.3806,270.6979 93.3246,270.6979 C94.1426,270.6979 94.9766,270.6819 95.8186,270.6529 C95.8186,270.6529 206.3606,270.6489 206.5346,270.6449 C225.3676,270.0949 236.2596,263.4369 242.5796,256.0899 C242.7496,261.0259 244.8986,265.6979 248.6246,268.9689 C251.9166,271.8639 256.1356,273.4349 260.4716,273.4349 C261.2366,273.4349 262.0056,273.3859 262.7756,273.2849 L309.3556,267.2609 C310.3026,267.1389 311.2266,266.9449 312.1206,266.6819 C312.8376,267.5639 313.6396,268.3819 314.5256,269.1229 C317.7806,271.8519 321.8746,273.3169 326.0566,273.3169 C327.1056,273.3169 328.1616,273.2239 329.2146,273.0379 L371.6446,265.4589 C374.7096,270.9729 380.5966,274.7099 387.3536,274.7099 C403.7436,274.7099 418.0396,270.8959 429.8416,263.3859 C442.6936,255.2099 451.8686,239.0919 457.9106,214.2809 C459.6036,227.2529 463.4086,237.9089 469.4656,246.5509 C478.4616,259.3859 492.6646,267.2769 511.6856,270.0099 C512.5276,270.1309 513.3826,270.1919 514.2366,270.1919 C514.2486,270.1919 574.6106,270.0779 574.6106,270.0779 L574.6106,271.4709 C574.6106,276.8239 576.9996,281.8929 581.1206,285.3059 C584.3676,287.9899 588.4206,289.4269 592.5666,289.4269 C593.6846,289.4269 594.8096,289.3219 595.9276,289.1069 L637.8716,281.1109 C646.1396,279.5379 652.1526,272.4309 652.4246,264.0599 C655.7036,267.9059 660.5186,270.4019 665.9696,270.4229 C665.9696,270.4229 701.0036,270.5399 701.0236,270.5399 C705.7726,270.5399 710.3316,268.6569 713.6996,265.3009 C717.0766,261.9319 718.9796,257.3569 718.9796,252.5839 L718.9796,214.8059 C718.9796,212.2749 718.4536,209.8619 717.5096,207.6799 C718.2466,205.9709 718.7286,204.1209 718.9066,202.1779 L732.0006,57.8009 Z" id="Fill-1" fill="#231F20"></path>
                <path d="M1340.6706,169.634 L1341.4196,171.638 C1340.7356,171.917 1340.0636,172.237 1339.4196,172.598 L1340.6706,169.634 Z M1162.4146,175.905 C1161.9366,175.294 1161.4136,174.715 1160.8596,174.173 L1113.0276,127.313 C1114.0886,127.297 1115.1576,127.183 1116.2146,126.973 L1154.2196,119.442 C1157.5356,118.786 1160.4616,117.217 1162.8186,115.061 L1162.8576,176.569 C1162.6966,176.357 1162.5786,176.114 1162.4146,175.905 L1162.4146,175.905 Z M1003.2066,190.286 C998.1936,192.001 994.4576,195.766 992.5306,200.339 L965.7926,128.73 L971.3066,128.71 C980.2506,128.677 987.8056,122.066 989.0286,113.207 L990.3666,103.5 C991.0586,105.545 992.0276,107.501 993.4336,109.203 C994.0326,109.928 994.6806,110.6 995.3726,111.211 C995.2596,111.891 995.1826,112.58 995.1456,113.272 C994.8706,118.43 996.8256,123.454 1000.5186,127.062 L1050.3946,175.849 C1049.8156,175.792 1049.2286,175.764 1048.6456,175.764 C1046.6896,175.764 1044.7266,176.084 1042.8356,176.731 L1003.2066,190.286 Z M899.3046,169.634 L900.0536,171.638 C899.3696,171.917 898.6976,172.237 898.0536,172.598 L899.3046,169.634 Z M1066.4716,191.574 L1066.6666,191.768 L1066.4926,191.768 C1066.4886,191.703 1066.4796,191.639 1066.4716,191.574 L1066.4716,191.574 Z M1511.8296,202.177 L1524.9236,57.801 C1525.3766,52.776 1523.7006,47.792 1520.2956,44.067 C1516.8946,40.343 1512.0846,38.221 1507.0396,38.221 L1458.6056,38.221 C1453.8356,38.221 1449.2606,40.12 1445.8926,43.497 C1442.5236,46.873 1440.6376,51.452 1440.6496,56.222 L1440.9976,200.137 C1441.0056,202.793 1441.5886,205.311 1442.6286,207.578 C1441.6616,209.773 1441.1226,212.198 1441.1146,214.749 L1441.0996,219.633 L1407.1586,128.73 L1412.6726,128.71 C1421.6166,128.677 1429.1716,122.066 1430.3936,113.207 L1436.3046,70.331 C1437.0136,65.19 1435.4626,59.991 1432.0536,56.08 C1428.6446,52.169 1423.7096,49.922 1418.5196,49.922 L1382.9426,49.922 C1381.6276,44.258 1377.5866,39.359 1371.7766,37.172 L1336.0876,23.731 C1334.0066,22.945 1331.8686,22.573 1329.7636,22.573 C1322.7306,22.573 1316.0786,26.731 1313.2046,33.585 L1306.3496,49.922 L1264.1746,49.922 C1254.7896,49.922 1246.9916,57.149 1246.2706,66.505 L1243.0236,108.798 C1242.6436,113.774 1244.3516,118.685 1247.7366,122.353 C1251.1256,126.021 1255.8826,128.11 1260.8746,128.127 L1274.9676,128.167 L1242.5256,205.423 L1242.6146,55.027 C1242.6146,49.788 1240.3316,44.808 1236.3596,41.395 C1233.0806,38.577 1228.9226,37.059 1224.6586,37.059 C1223.7556,37.059 1222.8496,37.128 1221.9426,37.266 L1178.0256,43.986 C1169.2566,45.331 1162.7826,52.877 1162.7866,61.748 L1162.7916,70.05 C1162.7136,69.817 1162.6626,69.603 1162.5846,69.368 C1158.7906,58.161 1149.5756,43.65 1127.2026,38.156 C1125.8016,37.812 1124.3646,37.638 1122.9226,37.638 C1122.9146,37.638 1015.3686,37.755 1015.3686,37.755 C1006.7696,37.768 999.3886,43.869 997.7576,52.311 L995.0396,66.408 C994.7276,62.623 993.2276,58.993 990.6886,56.08 C987.2796,52.169 982.3436,49.922 977.1536,49.922 L941.5776,49.922 C940.2616,44.258 936.2206,39.359 930.4106,37.172 L894.7216,23.731 C892.6406,22.945 890.5026,22.573 888.3976,22.573 C881.3646,22.573 874.7126,26.731 871.8386,33.585 L864.9836,49.922 L822.8086,49.922 C813.4236,49.922 805.6256,57.149 804.9056,66.505 L801.6586,108.798 C801.2776,113.774 802.9856,118.685 806.3706,122.353 C809.7596,126.021 814.5166,128.11 819.5086,128.127 L833.6026,128.167 L787.8276,237.17 C785.8646,241.851 785.9696,247.138 788.1236,251.734 C790.2736,256.329 794.2696,259.803 799.1196,261.289 L838.0516,273.224 C839.8006,273.759 841.5706,274.018 843.3196,274.018 C850.3636,274.014 856.9836,269.839 859.8546,263.042 L863.6926,253.956 L874.7336,265.92 C878.0536,269.516 882.6926,271.601 887.5796,271.694 C887.6976,271.694 887.8146,271.698 887.9276,271.698 C892.6936,271.698 897.2686,269.803 900.6406,266.418 L925.9776,241.017 L934.3786,263.499 C937.0666,270.702 943.9056,275.176 951.1966,275.176 C953.1326,275.176 955.0956,274.86 957.0276,274.196 L995.4986,260.989 C1000.0816,259.418 1003.8306,256.058 1005.9036,251.677 C1006.3276,250.78 1006.6216,249.841 1006.8896,248.898 C1013.9286,259.161 1023.3896,266.321 1035.1106,270.123 C1036.8876,270.702 1038.7506,270.997 1040.6206,271.001 C1040.6206,271.001 1113.7606,271.119 1113.7686,271.119 C1114.3076,271.119 1114.8416,271.095 1115.3766,271.046 C1141.6656,268.682 1155.5476,257.849 1162.8996,246.701 L1162.9036,252.94 C1162.9116,262.851 1170.9486,270.884 1180.8596,270.884 L1224.5416,270.884 C1231.4406,270.884 1237.3616,266.949 1240.3686,261.238 C1240.4096,261.252 1240.4446,261.276 1240.4856,261.289 L1279.4176,273.224 C1281.1666,273.759 1282.9356,274.018 1284.6846,274.018 C1291.7296,274.014 1298.3496,269.839 1301.2196,263.042 L1305.0586,253.956 L1316.0986,265.92 C1319.4186,269.516 1324.0586,271.601 1328.9456,271.694 C1329.0626,271.694 1329.1806,271.698 1329.2936,271.698 C1334.0586,271.698 1338.6346,269.803 1342.0066,266.418 L1367.3436,241.017 L1375.7446,263.499 C1378.4326,270.702 1385.2706,275.176 1392.5626,275.176 C1394.4986,275.176 1396.4616,274.86 1398.3926,274.196 L1436.8636,260.989 C1438.7516,260.341 1440.4486,259.327 1441.9956,258.127 C1444.3696,265.23 1450.9876,270.394 1458.8926,270.422 C1458.8926,270.422 1493.9266,270.54 1493.9466,270.54 C1498.6956,270.54 1503.2546,268.657 1506.6226,265.301 C1509.9996,261.932 1511.9026,257.357 1511.9026,252.584 L1511.9026,214.805 C1511.9026,212.275 1511.3766,209.862 1510.4326,207.68 C1511.1696,205.971 1511.6516,204.121 1511.8296,202.177 L1511.8296,202.177 Z" id="Fill-3" fill="#231F20"></path>
                <mask id="mask-2" fill="white">
                    <use xlink:href="#path-1"></use>
                </mask>
                <g id="Clip-6"></g>
                <path d="M109.6005,209.937 L190.3645,209.937 L190.3645,98.468 L109.6005,98.468 L109.6005,209.937 Z M109.6005,55.709 L109.6005,74.714 L120.8395,55.709 L216.4375,55.709 C228.2555,58.952 233.8185,75.564 233.1225,105.537 L233.1225,236.01 C230.8065,246.671 221.7655,252.234 206.0085,252.695 L95.4665,252.695 C79.0855,253.392 69.5875,246.246 66.9595,231.257 L66.9595,64.515 L109.6005,55.709 Z" id="Fill-5" fill="#FFC024" mask="url(#mask-2)"></path>
                <path d="M326.5181,42.4985 L372.2891,42.8465 L372.2891,57.1025 L421.4201,57.1025 C433.3961,58.9525 439.9991,65.6005 441.2341,77.0295 L440.8861,208.4305 C436.0191,229.2895 429.1281,242.5575 420.2051,248.2335 C411.2821,253.9135 400.3301,256.7515 387.3541,256.7515 L387.3541,212.8355 C395.2331,213.4555 398.5531,194.7585 397.3181,156.7525 L397.3181,100.9015 L372.7541,101.0185 L372.7541,247.0185 L326.0561,255.3595 L326.1741,101.0185 L307.0521,101.0185 L307.0521,249.4525 L260.4711,255.4765 L260.3541,109.2455 L276.1161,99.7435 L255.9531,99.7435 L268.0021,57.1025 L326.5181,57.1025 L326.5181,42.4985 Z" id="Fill-7" fill="#FFC024" mask="url(#mask-2)"></path>
                <path d="M477.2717,56.175 L629.7617,56.175 L622.4627,99.743 L518.4067,99.743 L518.4067,191.629 C517.3257,204.763 524.5847,210.443 540.1927,208.665 L592.1047,208.665 L591.8707,174.596 L557.1077,174.713 L557.1077,133.578 L634.6287,133.692 L634.6287,252.116 L634.5117,263.473 L592.5667,271.469 L592.5667,237.051 L576.4607,252.116 L514.2367,252.234 C500.2517,250.225 490.2317,244.893 484.1667,236.241 C478.1017,227.589 474.9927,215.152 474.8387,198.928 L474.8387,112.371 L500.3287,99.743 L462.4417,99.857 L477.2717,56.175 Z" id="Fill-8" fill="#FFC024" mask="url(#mask-2)"></path>
                <path d="M666.1479,214.8034 L701.0239,214.8034 L701.0239,252.5814 L666.0309,252.4644 L666.1479,214.8034 Z M665.6819,56.1754 L714.1169,56.1754 L701.0239,200.5524 L666.0309,200.0904 L665.6819,56.1754 Z" id="Fill-9" fill="#FFC024" mask="url(#mask-2)"></path>
                <path d="M906.8152,188.2681 L928.9492,212.6051 L887.9282,253.7401 L865.6802,229.6381 L906.8152,188.2681 Z M888.3932,40.5311 L924.0832,53.9721 L919.7952,67.8761 L977.1532,67.8761 L971.2422,110.7511 L939.9582,110.8651 L989.6682,244.0071 L951.1972,257.2131 L900.3252,121.0641 L843.3152,256.0561 L804.3832,244.1201 L860.5832,110.2861 L819.5612,110.1681 L822.8082,67.8761 L876.9192,67.8761 L888.3932,40.5311 Z" id="Fill-10" fill="#FFC024" mask="url(#mask-2)"></path>
                <path d="M1015.3893,55.7094 L1122.9233,55.5924 C1134.5833,58.4544 1142.1383,64.9604 1145.5753,75.1184 C1149.0133,85.2774 1150.7293,94.1804 1150.7293,101.8284 L1112.7243,109.3584 C1112.7243,100.2454 1104.1893,96.3824 1087.1163,97.7714 L1057.2203,97.7714 L1148.2963,186.9964 C1155.0943,195.6484 1155.9843,210.2854 1150.9643,230.9134 C1145.9403,243.9664 1133.5423,251.3834 1113.7693,253.1604 L1040.6493,253.0434 C1032.0743,250.2614 1025.3373,244.8734 1020.4303,236.8814 C1015.5233,228.8844 1011.7213,219.0184 1009.0163,207.2724 L1048.6453,193.7174 C1049.7263,204.7624 1054.2083,210.0944 1062.0873,209.7064 L1100.6753,209.8234 C1106.6233,208.5114 1105.6553,204.2604 1097.7763,197.0784 L1013.0733,114.2254 L1033.9283,97.7714 L1007.2803,97.7714 L1015.3893,55.7094 Z" id="Fill-11" fill="#FFC024" mask="url(#mask-2)"></path>
                <polygon id="Fill-12" fill="#FFC024" mask="url(#mask-2)" points="1224.6589 55.0131 1224.5419 252.9261 1180.8599 252.9261 1180.7429 61.7341"></polygon>
                <path d="M1348.1808,188.2681 L1370.3148,212.6051 L1329.2938,253.7401 L1307.0458,229.6381 L1348.1808,188.2681 Z M1329.7588,40.5311 L1365.4488,53.9721 L1361.1608,67.8761 L1418.5188,67.8761 L1412.6078,110.7511 L1381.3238,110.8651 L1431.0338,244.0071 L1392.5628,257.2131 L1341.6908,121.0641 L1284.6808,256.0561 L1245.7488,244.1201 L1301.9488,110.2861 L1260.9268,110.1681 L1264.1738,67.8761 L1318.2848,67.8761 L1329.7588,40.5311 Z" id="Fill-13" fill="#FFC024" mask="url(#mask-2)"></path>
                <path d="M1459.0708,214.8034 L1493.9468,214.8034 L1493.9468,252.5814 L1458.9538,252.4644 L1459.0708,214.8034 Z M1458.6048,56.1754 L1507.0398,56.1754 L1493.9468,200.5524 L1458.9538,200.0904 L1458.6048,56.1754 Z" id="Fill-14" fill="#FFC024" mask="url(#mask-2)"></path>
            </g>
        </g>
    </g>
</svg>